<svg width="288" height="210" viewBox="0 0 288 210" fill="none" xmlns="http://www.w3.org/2000/svg">
<path d="M209.062 15.2943H138.097C134.431 6.36063 125.146 0 114.298 0H66.7C52.6564 0 41.2289 10.6657 41.2289 23.773V50.7681C38.3896 53.0511 37.0695 56.6224 37.7682 60.2177L39.6393 69.8275C40.3122 73.128 42.1902 74.8247 43.6459 75.6658C45.2749 76.6063 47.0825 76.9171 48.7425 76.9251V78.633C48.7425 87.2976 54.1584 96.8465 63.6015 104.833C65.3799 106.336 67.2287 107.722 69.1136 108.975V114.128C69.1136 115.698 67.9136 117.045 66.2588 117.332C66.1816 117.345 66.1061 117.361 66.0305 117.378C65.9739 117.393 60.3159 118.769 52.919 120.727H28.7508C26.0334 120.727 23.4122 121.792 21.5599 123.648C19.7077 125.503 18.7567 128.02 18.9507 130.55L19.0159 131.418C8.20639 136.478 1.40516 145.549 0.756284 155.859C0.754568 155.903 0.752851 155.946 0.751135 155.989L0.000974133 198.333C-0.0402246 201.438 1.22664 204.365 3.56295 206.575C5.90269 208.784 9.02178 210 12.3503 210H168.65C171.976 210 175.097 208.784 177.435 206.575C179.773 204.365 181.04 201.44 180.999 198.32L180.249 155.989C180.247 155.946 180.245 155.903 180.242 155.859C179.576 145.251 172.397 135.956 161.037 130.99C160.829 130.899 160.611 130.806 160.386 130.712L160.398 130.55C160.59 128.02 159.639 125.505 157.789 123.648C155.936 121.792 153.315 120.727 150.598 120.727H128.081C120.686 118.769 115.026 117.393 114.969 117.38C114.894 117.361 114.818 117.345 114.741 117.332C113.086 117.045 111.886 115.698 111.886 114.128V108.977C113.771 107.722 115.62 106.336 117.398 104.833C123.4 99.7577 127.775 94.0508 130.167 88.3406H151.581L147.841 102.432C147.218 104.782 148.217 107.157 150.387 108.482C151.406 109.105 152.55 109.414 153.688 109.414C154.975 109.414 156.256 109.02 157.348 108.236L185.098 88.3406H209.062C217.747 88.3406 224.81 81.7477 224.81 73.6423V29.9927C224.81 21.8889 217.747 15.2943 209.062 15.2943ZM132.264 56.0825C133.524 55.6819 134.717 55.5169 135.495 55.4512C136.53 56.3084 137.018 57.7199 136.746 59.117L134.886 68.6787C134.614 70.0134 134.065 70.3306 133.885 70.4347C133.502 70.6558 132.937 70.7696 132.261 70.776L132.264 56.0825ZM47.8207 23.773C47.8207 14.0575 56.2905 6.15234 66.7 6.15234H114.3C124.71 6.15234 133.179 14.0575 133.179 23.773V49.5472C131.549 49.8164 129.518 50.3323 127.535 51.3192V32.5754C127.535 25.835 121.659 20.3508 114.437 20.3508H105.53C102.442 20.3508 99.4255 21.3554 97.0343 23.1786L96.1622 23.8451C94.5692 25.0612 92.5574 25.7309 90.4991 25.7309C88.4409 25.7309 86.4308 25.0612 84.8377 23.8467L83.964 23.1786C81.5745 21.3554 78.5567 20.3508 75.4685 20.3508H66.5627C59.3409 20.3508 53.4649 25.8334 53.4649 32.5754V51.3176C51.4822 50.3323 49.4515 49.8148 47.8207 49.5472V23.773ZM47.1152 70.4347C46.9349 70.3306 46.3856 70.0134 46.1195 68.7044L44.2536 59.1186C43.9823 57.7215 44.4699 56.3116 45.5015 55.4528C46.2792 55.5185 47.4739 55.6803 48.7356 56.0809L48.7391 70.776C48.0644 70.7696 47.4997 70.6558 47.1152 70.4347ZM17.9533 201.619C17.9533 202.391 18.0666 203.138 18.276 203.848H12.3503C10.7985 203.848 9.3445 203.28 8.25274 202.25C7.16269 201.22 6.57389 199.855 6.59105 198.421L7.34121 156.157C7.82873 148.771 12.2147 142.367 19.5326 138.179L23.5563 190.873C23.6302 191.841 23.8671 192.765 24.2378 193.626C20.5986 194.696 17.9533 197.875 17.9533 201.619ZM155.791 190.873L159.88 137.33C168.15 141.472 173.137 148.251 173.659 156.157L174.409 198.408C174.426 199.855 173.836 201.22 172.747 202.25C171.655 203.28 170.202 203.848 168.65 203.848H162.724C162.935 203.138 163.047 202.391 163.047 201.619C163.047 197.368 159.639 193.848 155.24 193.312C155.536 192.541 155.727 191.724 155.791 190.873V190.873ZM156.455 201.619C156.455 202.848 155.384 203.848 154.069 203.848H26.9312C25.6163 203.848 24.5451 202.848 24.5451 201.619C24.5451 200.392 25.6163 199.392 26.9312 199.392H154.069C155.384 199.392 156.455 200.392 156.455 201.619ZM152.965 127.841C153.583 128.461 153.889 129.267 153.823 130.112L149.216 190.437C149.096 192.009 147.68 193.24 145.99 193.24H33.3565C31.6691 193.24 30.2529 192.009 30.131 190.436L25.5253 130.112C25.4601 129.267 25.7656 128.461 26.3836 127.841C27.0033 127.221 27.8427 126.879 28.7508 126.879H150.598C151.504 126.879 152.345 127.221 152.965 127.841V127.841ZM108.191 120.727H72.8094C74.6119 119.016 75.7054 116.673 75.7054 114.128V112.751C80.9015 115.262 86.0651 116.67 90.4991 116.67C94.9331 116.67 100.097 115.262 105.295 112.751V114.128C105.295 116.673 106.388 119.016 108.191 120.727ZM112.971 100.274C105.612 106.496 96.7922 110.518 90.4991 110.518C84.2077 110.518 75.3878 106.496 68.0287 100.274C59.9606 93.4531 55.3343 85.564 55.3343 78.6314L55.3274 59.2516C55.3704 59.2516 55.4133 59.2532 55.4562 59.2532C56.0518 59.2532 56.6527 59.1442 57.2277 58.9199C58.9461 58.2502 60.0567 56.6945 60.0567 54.9577V32.5754C60.0567 29.2268 62.9749 26.5031 66.5627 26.5031H75.4702C77.0409 26.5031 78.5755 27.0142 79.7909 27.9419L80.6664 28.61C83.4336 30.7201 86.9251 31.8832 90.4991 31.8832C94.0731 31.8832 97.5664 30.7201 100.334 28.6084L101.207 27.9419C102.423 27.0142 103.959 26.5031 105.53 26.5031H114.436C118.023 26.5031 120.943 29.2268 120.943 32.5754V54.9577C120.943 56.6961 122.052 58.2502 123.772 58.9199C124.387 59.1602 125.034 59.2676 125.671 59.2516L125.666 78.633C125.667 85.564 121.039 93.4531 112.971 100.274ZM218.219 73.6423C218.219 78.3543 214.112 82.1883 209.062 82.1883H183.979C183.253 82.1883 182.547 82.4126 181.972 82.8259L154.634 102.425L158.992 86.0046C159.236 85.0866 159.014 84.1141 158.389 83.3691C157.765 82.6241 156.807 82.1883 155.794 82.1883H131.966C132.16 80.9914 132.259 79.8042 132.259 78.633V76.9251C133.917 76.9171 135.725 76.6063 137.354 75.6658C138.812 74.8247 140.689 73.128 141.366 69.8035L143.232 60.2177C143.932 56.6224 142.609 53.0495 139.771 50.7681V23.773C139.771 22.9896 139.73 22.2125 139.649 21.4467H209.062C214.112 21.4467 218.219 25.2807 218.219 29.9927V73.6423Z" fill="black"/>
<path d="M90.4999 174.057C97.332 174.057 102.89 168.869 102.89 162.492C102.89 156.116 97.332 150.928 90.4999 150.928C83.6678 150.928 78.1094 156.116 78.1094 162.492C78.1094 168.869 83.6678 174.057 90.4999 174.057ZM90.4999 157.08C93.6979 157.08 96.2986 159.509 96.2986 162.492C96.2986 165.477 93.6979 167.905 90.4999 167.905C87.3036 167.905 84.7012 165.477 84.7012 162.492C84.7012 159.509 87.3036 157.08 90.4999 157.08Z" fill="black"/>
<path d="M176.954 156.04C176.334 146.177 169.625 138.141 159.642 133.777C147.421 128.437 114.141 120.357 114.141 120.357C110.924 119.799 108.591 117.18 108.591 114.128V96.3723H72.4102V114.128C72.4102 117.18 70.0773 119.799 66.8621 120.357C66.8621 120.357 33.5821 128.437 21.3598 133.777C11.376 138.141 4.66743 146.177 4.04773 156.04L3.29757 198.371C3.23577 203.077 7.30758 206.924 12.351 206.924H168.65C173.694 206.924 177.766 203.077 177.706 198.371L176.954 156.04Z" fill="#FCC18B"/>
<path d="M176.954 156.04C176.334 146.177 169.625 138.141 159.642 133.777C147.421 128.437 114.141 120.357 114.141 120.357C110.924 119.799 108.591 117.18 108.591 114.128V96.3723H84.9861V124.777C84.9861 127.829 87.319 130.449 90.5342 131.005C90.5342 131.005 123.816 139.086 136.036 144.426C146.02 148.789 152.729 156.827 153.349 166.688L154.063 206.924H168.65C173.694 206.924 177.766 203.077 177.706 198.371L176.954 156.04Z" fill="#EAAB65"/>
<path d="M52.9918 51.4201H48.2419C46.5219 51.4201 44.9357 51.9633 43.6723 52.8749C41.4785 54.4579 40.5155 57.1207 41.0116 59.6681L42.8775 69.2539C44.3246 76.358 53.0038 73.112 53.0038 73.112L52.9918 51.4201Z" fill="#EAAB65"/>
<path d="M128.01 51.4201H132.759C134.479 51.4201 136.066 51.9633 137.329 52.8749C139.523 54.4579 140.486 57.1207 139.99 59.6681L138.124 69.2539C136.677 76.358 127.998 73.112 127.998 73.112L128.01 51.4201Z" fill="#FCC18B"/>
<path d="M116.828 14.9899C110.651 9.65948 101.969 5.00838 90.5015 4.8786C79.0329 5.00838 70.3502 9.65948 64.1738 14.9899C56.2963 21.7879 52.0288 31.8848 52.0288 42.3038L52.0391 78.633C52.0391 95.8083 75.9567 113.594 90.5015 113.594C105.045 113.594 128.964 95.8083 128.964 78.633L128.974 42.3038C128.973 31.8848 124.705 21.7879 116.828 14.9899Z" fill="#FFDEAD"/>
<path d="M116.828 14.9899C110.651 9.65948 101.969 5.00838 90.5016 4.8786C86.1757 4.92827 82.2464 5.62041 78.6981 6.74994C84.5569 8.61487 89.3755 11.6702 93.2224 14.9899C101.1 21.7879 105.367 31.8848 105.367 42.3038L105.357 78.633C105.357 91.6283 91.6637 104.973 78.6981 110.697C82.8678 112.538 86.9619 113.594 90.4998 113.594C105.045 113.594 128.962 95.8083 128.962 78.633L128.973 42.3038C128.973 31.8848 124.705 21.7879 116.828 14.9899V14.9899Z" fill="#EAAB65"/>
<path d="M114.301 3.07617H66.7007C54.4527 3.07617 44.5255 12.3431 44.5255 23.773V52.3334C44.5255 52.3334 50.6315 52.2036 54.5557 55.8277C55.3728 56.5823 56.7615 56.0312 56.7615 54.9577V32.5754C56.7615 27.5221 61.1509 23.427 66.5634 23.427H75.4709C77.8072 23.427 80.0714 24.18 81.879 25.5611L82.7528 26.2276C84.938 27.8954 87.676 28.8071 90.4999 28.8071C93.3254 28.8071 96.0617 27.8954 98.2487 26.2276L99.1224 25.5611C100.93 24.18 103.194 23.427 105.531 23.427H114.436C119.851 23.427 124.24 27.5221 124.24 32.5754V54.9593C124.24 56.0312 125.629 56.5839 126.446 55.8293C130.368 52.2036 136.476 52.3334 136.476 52.3334V23.7746C136.476 12.3431 126.547 3.07617 114.301 3.07617Z" fill="#8B4513"/>
<path d="M114.301 3.07617H106.068C110.21 7.62794 112.809 14.4644 112.874 23.427H114.438C119.851 23.427 124.24 27.5221 124.24 32.5754V54.9593C124.24 56.0312 125.629 56.5839 126.446 55.8293C130.37 52.2036 136.476 52.3334 136.476 52.3334V23.7746C136.476 12.3431 126.547 3.07617 114.301 3.07617Z" fill="#8B4513"/>
<path d="M159.642 133.777C152.53 130.67 138.289 126.634 127.622 123.803L125.314 124.62C102.883 132.549 78.1179 132.549 55.6869 124.62L53.3798 123.803C42.7127 126.634 28.4717 130.67 21.3598 133.777C11.376 138.141 4.66743 146.177 4.04773 156.04L3.29757 198.371C3.23577 203.077 7.30758 206.924 12.351 206.924H168.65C173.694 206.924 177.766 203.077 177.706 198.371L176.954 156.04C176.334 146.177 169.625 138.141 159.642 133.777Z" fill="#A9A9A9"/>
<path d="M145.991 196.316H33.3573C29.9327 196.316 27.0882 193.845 26.8445 190.655L22.2388 130.332C21.9693 126.804 24.9631 123.803 28.7516 123.803H150.599C154.387 123.803 157.381 126.804 157.111 130.332L152.504 190.655C152.26 193.845 149.418 196.316 145.991 196.316V196.316Z" fill="#4F4F4F"/>
<path d="M150.599 123.803H126.82C130.609 123.803 133.602 126.804 133.333 130.332L128.295 196.316H145.991C149.418 196.316 152.262 193.845 152.504 190.655L157.111 130.332C157.381 126.804 154.387 123.803 150.599 123.803Z" fill="#4F4F4F"/>
<path d="M154.07 206.924H26.932C23.794 206.924 21.25 204.549 21.25 201.621C21.25 198.69 23.794 196.316 26.932 196.316H154.07C157.208 196.316 159.752 198.69 159.752 201.621C159.752 204.549 157.208 206.924 154.07 206.924Z" fill="#CDD6DF"/>
<path d="M99.5945 162.492C99.5945 167.18 95.5227 170.981 90.4999 170.981C85.4771 170.981 81.4053 167.18 81.4053 162.492C81.4053 157.804 85.4771 154.004 90.4999 154.004C95.5227 154.004 99.5945 157.804 99.5945 162.492Z" fill="white"/>
<path d="M209.064 15.2943H138.099C134.432 6.36063 125.147 0 114.3 0H66.7017C52.6581 0 41.2306 10.6657 41.2306 23.773V50.7681C38.3913 53.0511 37.0712 56.6224 37.7699 60.2177L39.641 69.8275C40.3139 73.128 42.1919 74.8247 43.6476 75.6658C45.2767 76.6063 47.0843 76.9171 48.7442 76.9251V78.633C48.7442 87.2976 54.1601 96.8465 63.6032 104.833C65.3816 106.336 67.2304 107.722 69.1153 108.975V114.128C69.1153 115.698 67.9154 117.045 66.2605 117.332C66.1833 117.345 66.1078 117.361 66.0322 117.378C65.9756 117.393 60.3176 118.769 52.9207 120.727H28.7525C26.0351 120.727 23.4139 121.792 21.5616 123.648C19.7094 125.503 18.7584 128.02 18.9524 130.55L19.0176 131.418C8.2081 136.478 1.40687 145.549 0.757993 155.859C0.756277 155.903 0.75456 155.946 0.752844 155.989L0.00268312 198.333C-0.0385156 201.438 1.22835 204.365 3.56466 206.575C5.9044 208.784 9.02349 210 12.352 210H168.651C171.978 210 175.099 208.784 177.437 206.575C179.775 204.365 181.042 201.44 181.001 198.32L180.251 155.989C180.249 155.946 180.247 155.903 180.244 155.859C179.578 145.251 172.399 135.956 161.038 130.99C160.831 130.899 160.613 130.806 160.388 130.712L160.4 130.55C160.592 128.02 159.641 125.505 157.79 123.648C155.938 121.792 153.317 120.727 150.599 120.727H128.083C120.687 118.769 115.028 117.393 114.971 117.38C114.896 117.361 114.82 117.345 114.743 117.332C113.088 117.045 111.888 115.698 111.888 114.128V108.977C113.773 107.722 115.622 106.336 117.4 104.833C123.401 99.7577 127.777 94.0508 130.168 88.3406H151.583L147.843 102.432C147.219 104.782 148.219 107.157 150.388 108.482C151.408 109.105 152.551 109.414 153.689 109.414C154.977 109.414 156.257 109.02 157.349 108.236L185.1 88.3406H209.064C217.748 88.3406 224.812 81.7477 224.812 73.6423V29.9927C224.812 21.8889 217.748 15.2943 209.064 15.2943ZM132.266 56.0825C133.526 55.6819 134.719 55.5169 135.497 55.4512C136.532 56.3084 137.019 57.7199 136.748 59.117L134.887 68.6787C134.616 70.0134 134.067 70.3306 133.887 70.4347C133.504 70.6558 132.939 70.7696 132.263 70.776L132.266 56.0825ZM47.8224 23.773C47.8224 14.0575 56.2922 6.15234 66.7017 6.15234H114.302C124.711 6.15234 133.181 14.0575 133.181 23.773V49.5472C131.55 49.8164 129.519 50.3323 127.537 51.3192V32.5754C127.537 25.835 121.661 20.3508 114.439 20.3508H105.532C102.443 20.3508 99.4272 21.3554 97.036 23.1786L96.1639 23.8451C94.5709 25.0612 92.5591 25.7309 90.5008 25.7309C88.4426 25.7309 86.4325 25.0612 84.8394 23.8467L83.9657 23.1786C81.5762 21.3554 78.5584 20.3508 75.4702 20.3508H66.5644C59.3426 20.3508 53.4666 25.8334 53.4666 32.5754V51.3176C51.4839 50.3323 49.4532 49.8148 47.8224 49.5472V23.773ZM47.1169 70.4347C46.9366 70.3306 46.3873 70.0134 46.1212 68.7044L44.2553 59.1186C43.984 57.7215 44.4716 56.3116 45.5032 55.4528C46.2809 55.5185 47.4756 55.6803 48.7373 56.0809L48.7408 70.776C48.0662 70.7696 47.5014 70.6558 47.1169 70.4347ZM17.955 201.619C17.955 202.391 18.0683 203.138 18.2778 203.848H12.352C10.8002 203.848 9.34621 203.28 8.25445 202.25C7.1644 201.22 6.5756 199.855 6.59276 198.421L7.34292 156.157C7.83044 148.771 12.2164 142.367 19.5343 138.179L23.5581 190.873C23.6319 191.841 23.8688 192.765 24.2396 193.626C20.6003 194.696 17.955 197.875 17.955 201.619ZM155.792 190.873L159.881 137.33C168.152 141.472 173.139 148.251 173.66 156.157L174.411 198.408C174.428 199.855 173.837 201.22 172.749 202.25C171.657 203.28 170.203 203.848 168.651 203.848H162.726C162.937 203.138 163.048 202.391 163.048 201.619C163.048 197.368 159.641 193.848 155.241 193.312C155.538 192.541 155.729 191.724 155.792 190.873ZM156.457 201.619C156.457 202.848 155.385 203.848 154.07 203.848H122.286H90.5017H26.9329C25.618 203.848 24.5468 202.848 24.5468 201.619C24.5468 200.392 25.618 199.392 26.9329 199.392H154.07C155.385 199.392 156.457 200.392 156.457 201.619ZM152.967 127.841C153.585 128.461 153.89 129.267 153.825 130.112L149.218 190.437C149.097 192.009 147.681 193.24 145.992 193.24H33.3582C31.6708 193.24 30.2546 192.009 30.1327 190.436L25.527 130.112C25.4618 129.267 25.7673 128.461 26.3853 127.841C27.005 127.221 27.8444 126.879 28.7525 126.879H150.599C151.506 126.879 152.347 127.221 152.967 127.841ZM108.192 120.727H72.8111C74.6136 119.016 75.7071 116.673 75.7071 114.128V112.751C80.9033 115.262 86.0668 116.67 90.5008 116.67C94.9349 116.67 100.098 115.262 105.296 112.751V114.128C105.296 116.673 106.39 119.016 108.192 120.727ZM112.973 100.274C105.614 106.496 96.7939 110.518 90.5008 110.518C84.2094 110.518 75.3895 106.496 68.0304 100.274C59.9623 93.4531 55.336 85.564 55.336 78.6314L55.3291 59.2516C55.3721 59.2516 55.415 59.2532 55.4579 59.2532C56.0536 59.2532 56.6544 59.1442 57.2294 58.9199C58.9478 58.2502 60.0584 56.6945 60.0584 54.9577V32.5754C60.0584 29.2268 62.9767 26.5031 66.5644 26.5031H75.4719C77.0426 26.5031 78.5772 27.0142 79.7926 27.9419L80.6681 28.61C83.4353 30.7201 86.9268 31.8832 90.5008 31.8832C94.0748 31.8832 97.5681 30.7201 100.335 28.6084L101.209 27.9419C102.424 27.0142 103.961 26.5031 105.532 26.5031H114.437C118.025 26.5031 120.945 29.2268 120.945 32.5754V54.9577C120.945 56.6961 122.054 58.2502 123.774 58.9199C124.389 59.1602 125.036 59.2676 125.673 59.2516L125.667 78.633C125.669 85.564 121.041 93.4531 112.973 100.274ZM218.22 73.6423C218.22 78.3543 214.114 82.1883 209.064 82.1883H183.981C183.255 82.1883 182.549 82.4126 181.974 82.8259L154.635 102.425L158.994 86.0046C159.237 85.0866 159.016 84.1141 158.391 83.3691C157.766 82.6241 156.808 82.1883 155.796 82.1883H131.967C132.161 80.9914 132.261 79.8042 132.261 78.633V76.9251C133.919 76.9171 135.727 76.6063 137.356 75.6658C138.813 74.8247 140.691 73.128 141.368 69.8035L143.234 60.2177C143.934 56.6224 142.61 53.0495 139.773 50.7681V23.773C139.773 22.9896 139.732 22.2125 139.651 21.4467H174.357H209.064C214.114 21.4467 218.22 25.2807 218.22 29.9927V73.6423Z" fill="black"/>
<path d="M90.4999 174.057C97.332 174.057 102.89 168.869 102.89 162.492C102.89 156.116 97.332 150.928 90.4999 150.928C83.6678 150.928 78.1094 156.116 78.1094 162.492C78.1094 168.869 83.6678 174.057 90.4999 174.057ZM90.4999 157.08C93.6979 157.08 96.2986 159.509 96.2986 162.492C96.2986 165.477 93.6979 167.905 90.4999 167.905C87.3036 167.905 84.7012 165.477 84.7012 162.492C84.7012 159.509 87.3036 157.08 90.4999 157.08Z" fill="black"/>
<path d="M197 188.746C197 187.204 195.364 186 194.074 186C193.773 186 193.472 186.038 193.258 186.189L182.333 192.394C181.345 192.958 181 193.861 181 194.5C181 195.139 181.345 196.042 182.333 196.606L193.258 202.811C193.472 202.962 193.773 203 194.074 203C195.364 203 197 201.796 197 200.254C197 199.615 196.699 199.051 196.225 198.787L188.654 194.5L196.225 190.213C196.697 189.949 197 189.385 197 188.746Z" fill="black"/>
<path d="M286.75 192.394L276.509 186.189C276.306 186.038 276.024 186 275.741 186C274.532 186 273 187.204 273 188.746C273 189.385 273.282 189.949 273.726 190.213L280.823 194.5L273.726 198.787C273.282 199.051 273 199.615 273 200.254C273 201.796 274.532 203 275.741 203C276.024 203 276.306 202.962 276.509 202.811L286.75 196.606C287.679 196.042 288 195.139 288 194.5C288 193.861 287.679 192.958 286.75 192.394Z" fill="black"/>
<path d="M216.16 179C215.293 179 214.522 179.302 214.138 179.948L197.242 207.272C197.097 207.499 197 207.764 197 207.992C197 208.939 198.06 210 199.698 210C200.612 210 201.527 209.621 201.864 209.054L218.807 181.728C218.951 181.501 219 181.236 219 181.008C218.998 179.796 217.506 179 216.16 179Z" fill="black"/>
<path d="M242.824 180H239.975C238.934 180 238.089 180.874 238.089 181.953V191.071H227.91V181.953C227.91 180.874 227.066 180 226.025 180H223.175C222.134 180 221.29 180.874 221.29 181.953V207.047C221.29 208.126 222.134 209 223.175 209H226.025C227.066 209 227.91 208.126 227.91 207.047V197.929H238.09V207.047C238.09 208.126 238.934 209 239.975 209H242.825C243.866 209 244.71 208.126 244.71 207.047V181.953C244.71 180.874 243.866 180 242.824 180Z" fill="black"/>
<g clip-path="url(#clip0)">
<path d="M263.859 180.442C262.99 180.187 261.382 180.051 258.986 180.017C258.511 180 258.018 180 257.477 180H248.322V209H255.147V198.623C256.017 198.607 257.444 198.657 258.986 198.607C260.447 198.572 262.005 198.471 263.268 198.216C267.239 197.315 269.372 193.747 269.65 190.008C269.683 189.482 269.683 188.955 269.667 188.445C269.437 184.86 267.501 181.444 263.859 180.442V180.442ZM260.972 191.945C260.545 192.115 259.807 192.217 258.986 192.268C257.625 192.353 256 192.319 255.147 192.302V186.304C255.951 186.287 257.657 186.287 258.986 186.338C259.068 186.338 259.15 186.355 259.216 186.355C259.429 186.355 259.626 186.372 259.807 186.389C260.053 186.423 260.266 186.44 260.43 186.474C263.236 187.001 263.4 190.943 260.972 191.945Z" fill="black"/>
<path d="M269.667 188.445C269.683 188.955 269.683 189.482 269.651 190.008C269.372 193.747 267.239 197.315 263.268 198.216C262.005 198.471 260.447 198.572 258.986 198.606V192.268C259.807 192.217 260.545 192.115 260.972 191.945C263.4 190.943 263.236 187.001 260.43 186.474C260.266 186.44 260.053 186.423 259.807 186.389C259.626 186.372 259.429 186.355 259.216 186.355C259.15 186.355 259.068 186.338 258.986 186.338V180.017C261.382 180.051 262.99 180.187 263.859 180.442C267.501 181.444 269.437 184.86 269.667 188.445Z" fill="#4F4F4F"/>
</g>
<defs>
<clipPath id="clip0">
<rect width="28" height="29" fill="white" transform="translate(245 180)"/>
</clipPath>
</defs>
</svg>
