<svg width="259" height="162" viewBox="0 0 259 162" fill="none" xmlns="http://www.w3.org/2000/svg">
<path d="M148.666 11.7985H98.2026C95.5952 4.90677 88.9924 0 81.2788 0H47.4311C37.4445 0 29.3183 8.2278 29.3183 18.3392V39.1639C27.2993 40.9252 26.3606 43.6801 26.8574 46.4536L28.188 53.8669C28.6665 56.413 30.0019 57.7219 31.0371 58.3708C32.1955 59.0963 33.4809 59.3361 34.6613 59.3422V60.6598C34.6613 67.3439 38.5127 74.7102 45.2277 80.8715C46.4924 82.0308 47.8071 83.0999 49.1474 84.0664V88.0413C49.1474 89.2525 48.2941 90.292 47.1174 90.5132C47.0625 90.5231 47.0087 90.5354 46.955 90.549C46.9148 90.5602 42.8913 91.6219 37.6313 93.1322H20.445C18.5127 93.1322 16.6486 93.9541 15.3315 95.3854C14.0144 96.8166 13.3381 98.7583 13.476 100.71L13.5224 101.38C5.83565 105.283 0.999228 112.281 0.537802 120.234C0.536581 120.268 0.535361 120.301 0.53414 120.334L0.000692717 153C-0.0286042 155.395 0.872275 157.653 2.53365 159.358C4.19747 161.062 6.41549 162 8.78243 162H119.929C122.294 162 124.514 161.062 126.176 159.358C127.839 157.653 128.74 155.396 128.71 152.99L128.177 120.334C128.176 120.301 128.175 120.268 128.172 120.234C127.698 112.051 122.593 104.88 114.515 101.05C114.367 100.979 114.212 100.908 114.052 100.835L114.061 100.71C114.197 98.7583 113.521 96.8178 112.205 95.3854C110.888 93.9541 109.024 93.1322 107.092 93.1322H91.0798C85.821 91.6219 81.7963 90.5602 81.7561 90.5503C81.7024 90.5354 81.6486 90.5231 81.5937 90.5132C80.417 90.292 79.5637 89.2525 79.5637 88.0413V84.0677C80.904 83.0999 82.2187 82.0308 83.4834 80.8715C87.7509 76.9559 90.8625 72.5534 92.563 68.1485H107.791L105.131 79.0188C104.688 80.8319 105.399 82.6636 106.942 83.6857C107.667 84.1665 108.48 84.4051 109.289 84.4051C110.205 84.4051 111.115 84.101 111.892 83.4966L131.625 68.1485H148.666C154.842 68.1485 159.865 63.0625 159.865 56.8098V23.1372C159.865 16.8857 154.842 11.7985 148.666 11.7985ZM94.0546 43.2636C94.9506 42.9546 95.799 42.8273 96.352 42.7766C97.0881 43.4379 97.4348 44.5268 97.2419 45.6045L95.9187 52.9807C95.7258 54.0103 95.3352 54.255 95.207 54.3354C94.9348 54.5059 94.5332 54.5937 94.0522 54.5986L94.0546 43.2636ZM34.0058 18.3392C34.0058 10.8443 40.0288 4.74609 47.4311 4.74609H81.28C88.6823 4.74609 94.7053 10.8443 94.7053 18.3392V38.2221C93.5456 38.4298 92.1015 38.8277 90.6916 39.5891V25.1296C90.6916 19.9299 86.5131 15.6992 81.3776 15.6992H75.0434C72.8474 15.6992 70.7026 16.4741 69.0022 17.8807L68.382 18.3948C67.2492 19.3329 65.8186 19.8495 64.3549 19.8495C62.8913 19.8495 61.4619 19.3329 60.3291 18.3961L59.7077 17.8807C58.0085 16.4741 55.8625 15.6992 53.6665 15.6992H47.3335C42.198 15.6992 38.0195 19.9286 38.0195 25.1296V39.5879C36.6096 38.8277 35.1655 38.4285 34.0058 38.2221V18.3392ZM33.5041 54.3354C33.3759 54.255 32.9853 54.0103 32.7961 53.0005L31.4692 45.6058C31.2763 44.528 31.623 43.4404 32.3567 42.7779C32.9096 42.8286 33.7592 42.9534 34.6565 43.2624L34.6589 54.5986C34.1792 54.5937 33.7775 54.5059 33.5041 54.3354ZM12.7668 155.535C12.7668 156.13 12.8474 156.706 12.9963 157.254H8.78243C7.67892 157.254 6.64498 156.816 5.86861 156.022C5.09347 155.227 4.67477 154.174 4.68697 153.068L5.22042 120.464C5.5671 114.766 8.686 109.826 13.8899 106.596L16.7512 147.245C16.8037 147.992 16.9721 148.705 17.2358 149.368C14.6479 150.194 12.7668 152.646 12.7668 155.535ZM110.784 147.245L113.692 105.94C119.573 109.135 123.12 114.365 123.491 120.464L124.024 153.058C124.036 154.174 123.616 155.227 122.842 156.022C122.066 156.816 121.032 157.254 119.929 157.254H115.715C115.865 156.706 115.944 156.13 115.944 155.535C115.944 152.256 113.521 149.54 110.393 149.126C110.604 148.532 110.739 147.901 110.784 147.245ZM111.257 155.535C111.257 156.483 110.495 157.254 109.56 157.254H19.1511C18.216 157.254 17.4543 156.483 17.4543 155.535C17.4543 154.588 18.216 153.817 19.1511 153.817H109.56C110.495 153.817 111.257 154.588 111.257 155.535ZM108.775 98.6199C109.215 99.0982 109.432 99.7199 109.385 100.372L106.109 146.909C106.024 148.121 105.017 149.071 103.815 149.071H23.7202C22.5202 149.071 21.5131 148.121 21.4265 146.908L18.1513 100.372C18.1049 99.7199 18.3222 99.0982 18.7617 98.6199C19.2024 98.1416 19.7993 97.8783 20.445 97.8783H107.092C107.736 97.8783 108.334 98.1416 108.775 98.6199ZM76.9355 93.1322H51.7756C53.0573 91.8122 53.8349 90.0052 53.8349 88.0413V86.9796C57.53 88.9163 61.2019 90.0027 64.3549 90.0027C67.508 90.0027 71.1799 88.9163 74.8762 86.9796V88.0413C74.8762 90.0052 75.6538 91.8122 76.9355 93.1322ZM80.3352 77.3539C75.102 82.1544 68.83 85.2567 64.3549 85.2567C59.8811 85.2567 53.6091 82.1544 48.3759 77.3539C42.6386 72.0924 39.3488 66.0065 39.3488 60.6585L39.344 45.7083C39.3745 45.7083 39.405 45.7096 39.4355 45.7096C39.8591 45.7096 40.2863 45.6255 40.6953 45.4525C41.9172 44.9359 42.707 43.7357 42.707 42.396V25.1296C42.707 22.5464 44.7822 20.4453 47.3335 20.4453H53.6677C54.7846 20.4453 55.8759 20.8396 56.7402 21.5552L57.3628 22.0706C59.3305 23.6983 61.8134 24.5956 64.3549 24.5956C66.8964 24.5956 69.3806 23.6983 71.3484 22.0693L71.9697 21.5552C72.8339 20.8396 73.9265 20.4453 75.0434 20.4453H81.3764C83.9277 20.4453 86.0041 22.5464 86.0041 25.1296V42.396C86.0041 43.737 86.7927 44.9359 88.0158 45.4525C88.4528 45.6379 88.913 45.7207 89.3659 45.7083L89.3623 60.6598C89.3635 66.0065 86.0725 72.0924 80.3352 77.3539ZM155.178 56.8098C155.178 60.4447 152.258 63.4024 148.666 63.4024H130.83C130.313 63.4024 129.811 63.5754 129.403 63.8943L109.962 79.0138L113.061 66.3464C113.234 65.6382 113.077 64.888 112.633 64.3133C112.188 63.7386 111.507 63.4024 110.787 63.4024H93.8422C93.9802 62.4791 94.051 61.5633 94.051 60.6598V59.3422C95.2302 59.3361 96.5156 59.0963 97.674 58.3708C98.7104 57.7219 100.046 56.413 100.527 53.8484L101.854 46.4536C102.352 43.6801 101.411 40.9239 99.3928 39.1639V18.3392C99.3928 17.7348 99.3635 17.1354 99.3061 16.5446H148.666C152.258 16.5446 155.178 19.5022 155.178 23.1372V56.8098Z" fill="black"/>
<path d="M64.3555 134.272C69.2139 134.272 73.1665 130.27 73.1665 125.351C73.1665 120.432 69.2139 116.43 64.3555 116.43C59.4971 116.43 55.5444 120.432 55.5444 125.351C55.5444 130.27 59.4971 134.272 64.3555 134.272ZM64.3555 121.176C66.6296 121.176 68.479 123.05 68.479 125.351C68.479 127.654 66.6296 129.526 64.3555 129.526C62.0825 129.526 60.2319 127.654 60.2319 125.351C60.2319 123.05 62.0825 121.176 64.3555 121.176Z" fill="black"/>
<path d="M125.834 120.374C125.393 112.765 120.623 106.566 113.523 103.199C104.833 99.0797 81.167 92.8467 81.167 92.8467C78.8794 92.4166 77.2205 90.3958 77.2205 88.0413V74.3443H51.4917V88.0413C51.4917 90.3958 49.8328 92.4166 47.5464 92.8467C47.5464 92.8467 23.8806 99.0797 15.1892 103.199C8.0896 106.566 3.3191 112.765 2.87842 120.374L2.34498 153.029C2.30103 156.659 5.19654 159.627 8.78296 159.627H119.929C123.516 159.627 126.411 156.659 126.368 153.029L125.834 120.374Z" fill="#FCC18B"/>
<path d="M125.834 120.374C125.393 112.765 120.623 106.566 113.523 103.199C104.833 99.0797 81.167 92.8467 81.167 92.8467C78.8794 92.4166 77.2205 90.3958 77.2205 88.0413V74.3443H60.4346V96.2567C60.4346 98.6112 62.0935 100.632 64.3799 101.061C64.3799 101.061 88.0469 107.295 96.7371 111.415C103.837 114.78 108.607 120.981 109.048 128.588L109.556 159.627H119.929C123.516 159.627 126.411 156.659 126.368 153.029L125.834 120.374Z" fill="#EAAB65"/>
<path d="M37.6831 39.667H34.3054C33.0823 39.667 31.9544 40.086 31.0559 40.7892C29.4959 42.0103 28.811 44.0645 29.1638 46.0297L30.4907 53.4245C31.5198 58.9047 37.6917 56.4006 37.6917 56.4006L37.6831 39.667Z" fill="#EAAB65"/>
<path d="M91.0291 39.667H94.4067C95.6299 39.667 96.7578 40.086 97.6563 40.7892C99.2163 42.0103 99.9011 44.0645 99.5483 46.0297L98.2214 53.4245C97.1924 58.9047 91.0205 56.4006 91.0205 56.4006L91.0291 39.667Z" fill="#FCC18B"/>
<path d="M83.0774 11.5637C78.6853 7.45161 72.511 3.86362 64.3567 3.7635C56.2012 3.86362 50.0269 7.45161 45.6348 11.5637C40.033 16.8078 36.9983 24.5969 36.9983 32.6343L37.0056 60.6598C37.0056 73.9093 54.0137 87.6297 64.3567 87.6297C74.6985 87.6297 91.7078 73.9093 91.7078 60.6598L91.7151 32.6343C91.7139 24.5969 88.6792 16.8078 83.0774 11.5637Z" fill="#FFDEAD"/>
<path d="M83.0774 11.5637C78.6853 7.45161 72.511 3.86362 64.3567 3.7635C61.2805 3.80182 58.4863 4.33575 55.9631 5.20711C60.1294 6.64577 63.5559 9.00275 66.2915 11.5637C71.8933 16.8078 74.928 24.5969 74.928 32.6343L74.9207 60.6598C74.9207 70.6847 65.1831 80.979 55.9631 85.3951C58.9282 86.8152 61.8396 87.6297 64.3555 87.6297C74.6985 87.6297 91.7065 73.9093 91.7065 60.6598L91.7139 32.6343C91.7139 24.5969 88.6792 16.8078 83.0774 11.5637Z" fill="#EAAB65"/>
<path d="M81.2805 2.37305H47.4316C38.7219 2.37305 31.6626 9.52185 31.6626 18.3392V40.3715C31.6626 40.3715 36.0046 40.2713 38.7952 43.0671C39.3762 43.6492 40.3638 43.2241 40.3638 42.396V25.1296C40.3638 21.2314 43.4851 18.0722 47.334 18.0722H53.6682C55.3296 18.0722 56.9397 18.6531 58.2251 19.7185L58.8464 20.2327C60.4004 21.5193 62.3474 22.2226 64.3555 22.2226C66.3648 22.2226 68.3106 21.5193 69.8657 20.2327L70.4871 19.7185C71.7725 18.6531 73.3826 18.0722 75.044 18.0722H81.377C85.2271 18.0722 88.3484 21.2314 88.3484 25.1296V42.3972C88.3484 43.2241 89.3359 43.6505 89.917 43.0683C92.7063 40.2713 97.0496 40.3715 97.0496 40.3715V18.3404C97.0496 9.52185 89.989 2.37305 81.2805 2.37305Z" fill="#8B4513"/>
<path d="M81.2805 2.37305H75.426C78.3716 5.88441 80.2197 11.1583 80.2661 18.0722H81.3782C85.2271 18.0722 88.3484 21.2314 88.3484 25.1296V42.3972C88.3484 43.2241 89.3359 43.6505 89.917 43.0683C92.7075 40.2713 97.0496 40.3715 97.0496 40.3715V18.3404C97.0496 9.52185 89.989 2.37305 81.2805 2.37305Z" fill="#8B4513"/>
<path d="M113.523 103.199C108.466 100.803 98.3386 97.6892 90.7532 95.5052L89.1125 96.1356C73.1616 102.252 55.5505 102.252 39.5996 96.1356L37.959 95.5052C30.3735 97.6892 20.2466 100.803 15.1892 103.199C8.0896 106.566 3.3191 112.765 2.87842 120.374L2.34498 153.029C2.30103 156.659 5.19654 159.627 8.78296 159.627H119.929C123.516 159.627 126.411 156.659 126.368 153.029L125.834 120.374C125.393 112.765 120.623 106.566 113.523 103.199Z" fill="#A9A9A9"/>
<path d="M103.816 151.444H23.7207C21.2854 151.444 19.2627 149.538 19.0894 147.077L15.8142 100.542C15.6226 97.8202 17.7515 95.5052 20.4456 95.5052H107.092C109.786 95.5052 111.915 97.8202 111.724 100.542L108.447 147.077C108.274 149.538 106.252 151.444 103.816 151.444Z" fill="#4F4F4F"/>
<path d="M107.092 95.5052H90.1831C92.8772 95.5052 95.0061 97.8202 94.8145 100.542L91.2317 151.444H103.816C106.252 151.444 108.275 149.538 108.447 147.077L111.724 100.542C111.915 97.8202 109.786 95.5052 107.092 95.5052Z" fill="#4F4F4F"/>
<path d="M109.561 159.627H19.1516C16.9202 159.627 15.1111 157.795 15.1111 155.536C15.1111 153.275 16.9202 151.444 19.1516 151.444H109.561C111.792 151.444 113.601 153.275 113.601 155.536C113.601 157.795 111.792 159.627 109.561 159.627Z" fill="#CDD6DF"/>
<path d="M70.8228 125.351C70.8228 128.968 67.9272 131.899 64.3555 131.899C60.7837 131.899 57.8882 128.968 57.8882 125.351C57.8882 121.735 60.7837 118.803 64.3555 118.803C67.9272 118.803 70.8228 121.735 70.8228 125.351Z" fill="white"/>
<path d="M148.668 11.7985H98.2043C95.5969 4.90677 88.9941 0 81.2805 0H47.4328C37.4462 0 29.32 8.2278 29.32 18.3392V39.1639C27.301 40.9252 26.3623 43.6801 26.8591 46.4536L28.1897 53.8669C28.6682 56.413 30.0036 57.7219 31.0388 58.3708C32.1972 59.0963 33.4826 59.3361 34.663 59.3422V60.6598C34.663 67.3439 38.5144 74.7102 45.2295 80.8715C46.4941 82.0308 47.8088 83.0999 49.1491 84.0664V88.0413C49.1491 89.2525 48.2959 90.292 47.1191 90.5132C47.0642 90.5231 47.0105 90.5354 46.9567 90.549C46.9165 90.5602 42.893 91.6219 37.633 93.1322H20.4467C18.5144 93.1322 16.6504 93.9541 15.3332 95.3854C14.0161 96.8166 13.3398 98.7583 13.4777 100.71L13.5241 101.38C5.83736 105.283 1.00094 112.281 0.539511 120.234C0.53829 120.268 0.53707 120.301 0.535849 120.334L0.0024017 153C-0.0268952 155.395 0.873984 157.653 2.53536 159.358C4.19918 161.062 6.4172 162 8.78414 162H119.93C122.296 162 124.515 161.062 126.178 159.358C127.841 157.653 128.741 155.396 128.712 152.99L128.179 120.334C128.177 120.301 128.176 120.268 128.174 120.234C127.7 112.051 122.595 104.88 114.517 101.05C114.369 100.979 114.214 100.908 114.054 100.835L114.062 100.71C114.199 98.7583 113.523 96.8178 112.207 95.3854C110.89 93.9541 109.026 93.1322 107.093 93.1322H91.0815C85.8227 91.6219 81.7981 90.5602 81.7578 90.5503C81.7041 90.5354 81.6504 90.5231 81.5954 90.5132C80.4187 90.292 79.5654 89.2525 79.5654 88.0413V84.0677C80.9057 83.0999 82.2204 82.0308 83.4851 80.8715C87.7527 76.9559 90.8642 72.5534 92.5647 68.1485H107.793L105.133 79.0188C104.69 80.8319 105.4 82.6636 106.943 83.6857C107.668 84.1665 108.481 84.4051 109.291 84.4051C110.206 84.4051 111.117 84.101 111.893 83.4966L131.627 68.1485H148.668C154.844 68.1485 159.867 63.0625 159.867 56.8098V23.1372C159.867 16.8857 154.844 11.7985 148.668 11.7985ZM94.0564 43.2636C94.9524 42.9546 95.8008 42.8273 96.3537 42.7766C97.0898 43.4379 97.4365 44.5268 97.2436 45.6045L95.9204 52.9807C95.7275 54.0103 95.3369 54.255 95.2087 54.3354C94.9365 54.5059 94.5349 54.5937 94.0539 54.5986L94.0564 43.2636ZM34.0075 18.3392C34.0075 10.8443 40.0305 4.74609 47.4328 4.74609H81.2817C88.684 4.74609 94.707 10.8443 94.707 18.3392V38.2221C93.5473 38.4298 92.1032 38.8277 90.6933 39.5891V25.1296C90.6933 19.9299 86.5149 15.6992 81.3794 15.6992H75.0451C72.8491 15.6992 70.7043 16.4741 69.0039 17.8807L68.3838 18.3948C67.2509 19.3329 65.8203 19.8495 64.3567 19.8495C62.893 19.8495 61.4636 19.3329 60.3308 18.3961L59.7094 17.8807C58.0102 16.4741 55.8642 15.6992 53.6682 15.6992H47.3352C42.1997 15.6992 38.0212 19.9286 38.0212 25.1296V39.5879C36.6113 38.8277 35.1672 38.4285 34.0075 38.2221V18.3392ZM33.5058 54.3354C33.3776 54.255 32.987 54.0103 32.7978 53.0005L31.4709 45.6058C31.278 44.528 31.6247 43.4404 32.3584 42.7779C32.9113 42.8286 33.7609 42.9534 34.6582 43.2624L34.6606 54.5986C34.1809 54.5937 33.7793 54.5059 33.5058 54.3354ZM12.7685 155.535C12.7685 156.13 12.8491 156.706 12.998 157.254H8.78414C7.68062 157.254 6.64669 156.816 5.87032 156.022C5.09517 155.227 4.67647 154.174 4.68868 153.068L5.22213 120.464C5.56881 114.766 8.6877 109.826 13.8916 106.596L16.7529 147.245C16.8054 147.992 16.9738 148.705 17.2375 149.368C14.6496 150.194 12.7685 152.646 12.7685 155.535ZM110.786 147.245L113.694 105.94C119.575 109.135 123.121 114.365 123.492 120.464L124.026 153.058C124.038 154.174 123.618 155.227 122.844 156.022C122.068 156.816 121.034 157.254 119.93 157.254H115.717C115.867 156.706 115.946 156.13 115.946 155.535C115.946 152.256 113.523 149.54 110.394 149.126C110.605 148.532 110.741 147.901 110.786 147.245ZM111.259 155.535C111.259 156.483 110.497 157.254 109.562 157.254H86.9595H64.3573H19.1528C18.2177 157.254 17.456 156.483 17.456 155.535C17.456 154.588 18.2177 153.817 19.1528 153.817H109.562C110.497 153.817 111.259 154.588 111.259 155.535ZM108.777 98.6199C109.216 99.0982 109.434 99.7199 109.387 100.372L106.111 146.909C106.025 148.121 105.018 149.071 103.817 149.071H23.7219C22.5219 149.071 21.5149 148.121 21.4282 146.908L18.153 100.372C18.1066 99.7199 18.3239 99.0982 18.7634 98.6199C19.2041 98.1416 19.801 97.8783 20.4467 97.8783H107.093C107.738 97.8783 108.336 98.1416 108.777 98.6199ZM76.9372 93.1322H51.7773C53.059 91.8122 53.8366 90.0052 53.8366 88.0413V86.9796C57.5317 88.9163 61.2036 90.0027 64.3567 90.0027C67.5097 90.0027 71.1816 88.9163 74.8779 86.9796V88.0413C74.8779 90.0052 75.6555 91.8122 76.9372 93.1322ZM80.3369 77.3539C75.1037 82.1544 68.8317 85.2567 64.3567 85.2567C59.8828 85.2567 53.6108 82.1544 48.3776 77.3539C42.6403 72.0924 39.3505 66.0065 39.3505 60.6585L39.3457 45.7083C39.3762 45.7083 39.4067 45.7096 39.4372 45.7096C39.8608 45.7096 40.288 45.6255 40.697 45.4525C41.9189 44.9359 42.7087 43.7357 42.7087 42.396V25.1296C42.7087 22.5464 44.7839 20.4453 47.3352 20.4453H53.6694C54.7863 20.4453 55.8776 20.8396 56.7419 21.5552L57.3645 22.0706C59.3322 23.6983 61.8151 24.5956 64.3567 24.5956C66.8981 24.5956 69.3823 23.6983 71.3501 22.0693L71.9714 21.5552C72.8356 20.8396 73.9282 20.4453 75.0451 20.4453H81.3781C83.9294 20.4453 86.0058 22.5464 86.0058 25.1296V42.396C86.0058 43.737 86.7944 44.9359 88.0175 45.4525C88.4546 45.6379 88.9148 45.7207 89.3676 45.7083L89.364 60.6598C89.3652 66.0065 86.0742 72.0924 80.3369 77.3539ZM155.179 56.8098C155.179 60.4447 152.259 63.4024 148.668 63.4024H130.831C130.315 63.4024 129.813 63.5754 129.404 63.8943L109.963 79.0138L113.063 66.3464C113.236 65.6382 113.079 64.888 112.634 64.3133C112.19 63.7386 111.509 63.4024 110.789 63.4024H93.844C93.9819 62.4791 94.0527 61.5633 94.0527 60.6598V59.3422C95.2319 59.3361 96.5173 59.0963 97.6757 58.3708C98.7121 57.7219 100.048 56.413 100.529 53.8484L101.855 46.4536C102.353 43.6801 101.412 40.9239 99.3945 39.1639V18.3392C99.3945 17.7348 99.3652 17.1354 99.3078 16.5446H123.988H148.668C152.259 16.5446 155.179 19.5022 155.179 23.1372V56.8098Z" fill="black"/>
<path d="M64.3555 134.272C69.2139 134.272 73.1665 130.27 73.1665 125.351C73.1665 120.432 69.2139 116.43 64.3555 116.43C59.4971 116.43 55.5444 120.432 55.5444 125.351C55.5444 130.27 59.4971 134.272 64.3555 134.272ZM64.3555 121.176C66.6296 121.176 68.479 123.05 68.479 125.351C68.479 127.654 66.6296 129.526 64.3555 129.526C62.0825 129.526 60.2319 127.654 60.2319 125.351C60.2319 123.05 62.0825 121.176 64.3555 121.176Z" fill="black"/>
<path d="M156 131.199C156 128.841 154.262 127 152.891 127C152.571 127 152.252 127.058 152.024 127.289L140.417 136.779C139.366 137.642 139 139.022 139 140C139 140.978 139.366 142.358 140.417 143.221L152.024 152.711C152.252 152.942 152.571 153 152.891 153C154.262 153 156 151.159 156 148.801C156 147.823 155.68 146.96 155.177 146.557L147.133 140L155.177 133.443C155.678 133.04 156 132.177 156 131.199Z" fill="black"/>
<path d="M257.583 136.779L245.976 127.289C245.747 127.058 245.427 127 245.107 127C243.737 127 242 128.841 242 131.199C242 132.177 242.32 133.04 242.823 133.443L250.866 140L242.823 146.557C242.32 146.96 242 147.823 242 148.801C242 151.159 243.737 153 245.107 153C245.427 153 245.747 152.942 245.976 152.711L257.583 143.221C258.636 142.358 259 140.978 259 140C259 139.022 258.636 137.642 257.583 136.779Z" fill="black"/>
<path d="M177.773 119C176.788 119 175.911 119.4 175.475 120.254L156.275 156.391C156.111 156.692 156 157.043 156 157.345C156 158.596 157.204 160 159.066 160C160.104 160 161.144 159.499 161.527 158.749L180.781 122.609C180.945 122.308 181 121.957 181 121.655C180.998 120.053 179.302 119 177.773 119Z" fill="black"/>
<path d="M231.824 129H228.975C227.934 129 227.089 129.904 227.089 131.021V140.453H216.91V131.021C216.91 129.904 216.066 129 215.025 129H212.175C211.134 129 210.29 129.904 210.29 131.021V156.979C210.29 158.096 211.134 159 212.175 159H215.025C216.066 159 216.91 158.096 216.91 156.979V147.547H227.09V156.979C227.09 158.096 227.934 159 228.975 159H231.825C232.866 159 233.71 158.096 233.71 156.979V131.021C233.71 129.904 232.866 129 231.824 129Z" fill="black"/>
<g clip-path="url(#clip0)">
<path d="M200.533 123.548C199.632 123.232 197.967 123.063 195.486 123.021C194.993 123 194.483 123 193.923 123H184.441V159H191.51V146.119C192.41 146.098 193.889 146.161 195.486 146.098C196.998 146.055 198.613 145.929 199.921 145.613C204.033 144.495 206.242 140.065 206.531 135.424C206.565 134.77 206.565 134.116 206.548 133.484C206.31 129.033 204.305 124.793 200.533 123.548V123.548ZM197.542 137.829C197.1 138.04 196.336 138.166 195.486 138.23C194.075 138.335 192.393 138.293 191.51 138.272V130.826C192.342 130.805 194.11 130.805 195.486 130.868C195.571 130.868 195.656 130.889 195.724 130.889C195.945 130.889 196.149 130.91 196.336 130.931C196.59 130.973 196.811 130.995 196.981 131.037C199.887 131.691 200.057 136.584 197.542 137.829Z" fill="black"/>
<path d="M206.548 133.484C206.565 134.116 206.565 134.77 206.531 135.424C206.242 140.065 204.033 144.495 199.921 145.612C198.613 145.929 196.998 146.055 195.486 146.098V138.23C196.336 138.166 197.1 138.04 197.542 137.829C200.057 136.584 199.887 131.691 196.981 131.037C196.811 130.994 196.591 130.973 196.336 130.931C196.149 130.91 195.945 130.889 195.724 130.889C195.656 130.889 195.571 130.868 195.486 130.868V123.021C197.967 123.063 199.632 123.232 200.533 123.548C204.305 124.793 206.31 129.033 206.548 133.484Z" fill="black"/>
</g>
<defs>
<clipPath id="clip0">
<rect width="29" height="36" fill="white" transform="translate(181 123)"/>
</clipPath>
</defs>
</svg>
